<?xml version="1.0" standalone="no"?>
<!DOCTYPE svg PUBLIC "-//W3C//DTD SVG 20010904//EN"
 "http://www.w3.org/TR/2001/REC-SVG-20010904/DTD/svg10.dtd">
<svg version="1.0" xmlns="http://www.w3.org/2000/svg"
 width="2048.000000" height="2048.000000" viewBox="0 0 2048.000000 2048.000000"
 preserveAspectRatio="xMidYMid meet">

<!-- Fondo amarillo circular para el interior de la cara -->
<circle cx="1024" cy="1024" r="900" fill="#fcd34d" />

<g transform="translate(0.000000,2048.000000) scale(0.100000,-0.100000)"
fill="#000000" stroke="none">
<path d="M9625 19679 c-91 -8 -313 -34 -760 -89 -88 -11 -248 -29 -355 -40
-448 -47 -767 -108 -1127 -215 -211 -63 -254 -78 -543 -190 -322 -124 -730
-329 -1165 -585 -44 -26 -125 -73 -180 -104 -349 -200 -830 -506 -1060 -676
-325 -238 -526 -406 -754 -626 -317 -306 -551 -577 -760 -879 -144 -210 -224
-335 -409 -640 -340 -561 -626 -1107 -780 -1490 -75 -186 -191 -517 -243 -690
-87 -289 -209 -827 -290 -1280 -88 -494 -104 -586 -133 -780 -15 -93 -28 -183
-31 -200 -3 -16 -19 -138 -35 -270 -80 -622 -94 -830 -87 -1255 6 -325 13
-419 48 -675 101 -744 301 -1607 508 -2200 198 -568 384 -941 724 -1450 186
-279 527 -713 796 -1012 25 -28 73 -82 106 -119 33 -37 69 -78 80 -89 11 -12
62 -68 114 -125 129 -144 379 -391 541 -535 74 -66 137 -122 140 -125 35 -36
414 -331 540 -418 82 -58 324 -218 388 -258 35 -21 92 -58 128 -82 35 -23 66
-42 68 -42 3 0 46 -24 98 -54 504 -290 1510 -765 2108 -993 729 -279 1415
-420 2310 -477 1009 -64 1904 10 2658 220 335 93 775 248 1019 360 43 19 115
51 160 70 46 18 135 59 199 89 64 30 119 55 121 55 4 0 163 75 503 238 63 30
142 67 176 82 34 16 142 66 240 113 98 46 197 92 219 102 311 140 685 341 898
483 124 83 277 191 319 225 232 187 296 245 493 442 254 254 413 437 674 775
156 203 341 481 772 1157 46 73 105 165 131 205 25 40 74 118 108 173 34 55
74 118 90 140 45 66 219 363 276 470 53 101 186 382 251 530 94 217 246 644
327 923 162 551 278 1327 317 2112 19 401 -1 1070 -41 1370 -6 41 -22 163 -36
270 -47 369 -139 817 -249 1216 -64 233 -219 661 -310 859 -136 294 -352 702
-545 1030 -29 50 -129 223 -221 385 -447 783 -631 1075 -897 1420 -216 282
-301 380 -527 606 -560 563 -1170 1013 -1862 1371 -143 74 -631 305 -753 356
-617 259 -919 356 -1434 458 -240 47 -640 112 -821 133 -517 61 -867 92 -1170
106 -426 19 -444 21 -474 45 -75 63 -170 85 -356 83 -77 0 -185 -5 -240 -9z
m-15 -603 c82 -20 238 -34 455 -40 94 -3 197 -10 230 -16 33 -5 166 -12 295
-15 257 -7 342 -12 745 -50 603 -56 1006 -119 1480 -231 228 -54 602 -171 730
-228 17 -7 57 -23 90 -36 33 -13 116 -48 185 -78 214 -93 310 -138 605 -283
245 -120 313 -156 515 -271 416 -237 852 -560 1204 -892 71 -66 142 -132 159
-146 63 -53 342 -363 434 -483 270 -353 443 -622 845 -1317 72 -124 147 -252
167 -286 178 -301 428 -751 545 -984 256 -508 385 -878 530 -1525 107 -475
164 -965 186 -1575 20 -591 -53 -1473 -171 -2050 -130 -636 -268 -1054 -549
-1657 -47 -100 -240 -458 -286 -531 -19 -29 -34 -55 -34 -57 0 -8 -89 -149
-205 -325 -123 -188 -232 -357 -353 -550 -153 -244 -182 -290 -285 -445 -209
-313 -490 -676 -705 -910 -104 -114 -387 -395 -462 -461 -119 -102 -321 -255
-478 -360 -157 -105 -563 -315 -907 -469 -134 -60 -441 -205 -1098 -516 -115
-55 -210 -99 -212 -99 -2 0 -32 -13 -67 -29 -132 -60 -245 -106 -548 -222
-235 -91 -668 -210 -975 -268 -450 -85 -776 -117 -1275 -125 -832 -14 -1749
102 -2425 305 -169 51 -286 90 -380 126 -659 253 -1401 599 -2035 950 -443
245 -810 496 -1185 808 -357 298 -646 587 -987 990 -42 50 -137 162 -213 250
-463 543 -869 1197 -1085 1750 -252 646 -485 1613 -589 2440 -41 323 -53 705
-31 970 40 469 121 1095 196 1508 226 1247 351 1732 592 2297 91 214 113 262
191 424 207 430 673 1225 948 1619 240 342 652 778 989 1047 17 14 74 60 126
102 192 155 513 379 788 550 139 86 687 409 820 483 58 32 122 68 142 81 38
25 399 206 478 241 25 11 81 36 125 56 44 20 154 65 245 100 496 194 929 295
1500 352 85 8 209 22 275 30 155 20 473 63 505 69 44 7 153 -1 220 -18z"/>
<path d="M15654 15556 c-56 -26 -75 -48 -261 -296 -61 -82 -150 -184 -227
-260 -122 -120 -128 -124 -154 -113 -15 6 -72 30 -127 53 -96 40 -317 107
-420 128 -95 20 -310 34 -410 28 -55 -4 -172 -18 -260 -32 -459 -74 -817 -288
-1093 -652 -103 -137 -137 -188 -196 -303 -202 -389 -309 -851 -323 -1400 -11
-406 30 -734 127 -1029 71 -219 158 -407 277 -603 108 -178 181 -264 323 -378
258 -207 478 -281 748 -250 385 44 675 292 816 699 36 104 92 357 111 497 19
145 27 508 14 660 -18 219 -72 480 -132 646 -13 36 -44 97 -69 135 -62 96
-285 362 -350 416 -90 77 -204 140 -330 184 -100 35 -269 44 -387 20 -155 -32
-323 -115 -433 -214 -21 -19 -38 -30 -38 -24 0 27 76 236 115 317 106 218 276
424 435 530 193 128 391 188 620 188 308 -1 566 -89 815 -278 240 -182 430
-397 575 -650 76 -132 199 -385 247 -510 68 -174 122 -248 217 -298 54 -28 70
-32 146 -32 76 0 91 3 139 30 63 35 134 123 152 188 7 25 9 81 6 138 -5 91 -9
106 -83 290 -42 107 -84 204 -91 216 -29 44 -15 62 78 97 186 70 476 289 586
443 59 82 83 154 83 244 0 54 -5 83 -22 116 -51 101 -162 162 -272 149 -76
-10 -142 -45 -221 -117 -92 -84 -193 -157 -280 -203 -119 -62 -287 -135 -301
-129 -10 4 -161 167 -248 269 l-30 34 58 57 c94 93 141 153 227 289 93 149
184 329 198 394 23 101 7 181 -50 262 -54 75 -203 101 -305 54z"/>
<path d="M5284 13928 c-31 -22 -58 -52 -78 -88 -28 -50 -31 -63 -31 -140 1
-74 6 -100 43 -205 60 -167 166 -356 293 -518 46 -59 269 -287 281 -287 18 0
6 -21 -17 -30 -26 -10 -204 -117 -284 -172 l-44 -29 -81 27 c-106 36 -583 277
-683 344 -43 29 -133 106 -199 170 -128 123 -180 156 -255 164 -83 8 -134 -10
-199 -71 -78 -72 -99 -131 -82 -225 24 -132 107 -254 307 -453 164 -164 274
-242 502 -356 203 -101 193 -89 138 -164 -39 -52 -112 -198 -129 -254 -9 -30
-16 -77 -16 -105 0 -28 -5 -78 -10 -111 -18 -112 30 -209 131 -260 85 -44 188
-36 284 20 39 23 47 25 87 15 40 -10 50 -9 102 16 31 15 78 46 104 69 57 50
379 241 517 306 263 123 550 196 1005 255 192 25 610 26 770 1 209 -33 324
-66 630 -183 321 -122 442 -184 630 -322 67 -48 156 -104 198 -123 72 -32 84
-34 182 -34 94 0 111 3 168 29 75 35 153 114 197 201 28 55 30 68 30 165 l0
105 -72 145 c-101 206 -157 273 -363 431 -154 119 -611 427 -765 516 -233 135
-454 211 -760 263 -283 47 -612 45 -920 -6 -119 -19 -353 -70 -389 -84 -35
-13 -68 5 -206 111 -213 165 -460 444 -616 693 -99 160 -163 206 -284 206 -60
0 -73 -4 -116 -32z"/>
<path d="M11923 9170 c-337 -43 -684 -179 -988 -389 -114 -78 -184 -138 -316
-270 -121 -122 -172 -195 -235 -338 -33 -76 -34 -81 -28 -168 7 -98 17 -126
61 -167 39 -37 131 -78 176 -78 88 0 120 17 224 119 175 171 326 281 536 390
43 22 95 45 115 52 20 6 42 16 49 21 19 15 193 67 283 85 110 21 301 21 400
-1 182 -39 351 -164 400 -296 72 -195 16 -336 -224 -568 -69 -66 -160 -143
-203 -172 -139 -91 -304 -162 -491 -210 -161 -41 -236 -85 -307 -181 -131
-178 -111 -428 47 -575 85 -80 159 -108 341 -129 149 -18 214 -33 337 -77 250
-90 478 -262 550 -415 59 -127 44 -276 -39 -388 -92 -122 -215 -217 -359 -279
-153 -65 -229 -80 -412 -81 -142 0 -176 3 -242 22 -100 29 -254 92 -453 186
-222 104 -302 124 -420 105 -131 -21 -237 -101 -299 -225 -96 -190 -22 -412
182 -546 157 -104 512 -265 706 -322 463 -133 984 -83 1392 134 251 135 485
342 626 556 46 70 119 218 143 290 52 158 73 426 44 578 -32 174 -105 364
-191 499 -88 137 -181 230 -400 400 -59 46 -108 86 -108 89 0 3 16 17 36 32
20 14 79 67 131 118 290 284 454 613 470 939 6 127 -8 233 -51 380 -70 241
-233 478 -431 625 -142 106 -379 203 -580 240 -107 19 -371 27 -472 15z"/>
</g>
</svg>